# File created by Blade
# Date/Time:  Tue Jan 27 17:09:01 2015
#---------------------------------------------------------
:version 1.10
:name HOM
:units
  mass 1.0
  length 1.000000
  angle deg
:documentation
     Acclaim Skeleton File
:root
   axis xyz
   order TX TY TZ RX RY RZ
   position 0.000000 0.000000 0.000000
   orientation 0 0 0
:bonedata
   begin
      id 1
      name Spine_dum
      direction 0.000000 1.000000 0.000000
      length 7.539951
      axis 0.0 0.0 0.0 xyz
   end
   begin
      id 2
      name LeftUpLeg_dum
      direction 1.000000 0.000000 0.000000
      length 3.345476
      axis 0.0 0.0 0.0 xyz
   end
   begin
      id 3
      name RightUpLeg_dum
      direction -1.000000 0.000000 0.000000
      length 3.345476
      axis 0.0 0.0 0.0 xyz
   end
   begin
      id 4
      name Spine
      direction 0.000000 1.000000 0.000000
      length 0.000000
      axis 0.0 0.0 0.0 xyz
      dof rx ry rz
   end
   begin
      id 5
      name Spine_dum1
      direction 0.000000 1.000000 0.000000
      length 15.093809
      axis 0.0 0.0 0.0 xyz
   end
   begin
      id 6
      name Spine_dum2
      direction 0.000000 1.000000 0.000000
      length 9.738928
      axis 0.0 0.0 0.0 xyz
   end
   begin
      id 7
      name Spine_dum3
      direction 0.000000 1.000000 0.000000
      length 9.738928
      axis 0.0 0.0 0.0 xyz
   end
   begin
      id 8
      name Head
      direction 0.000000 1.000000 0.000000
      length 4.527550
      axis 0.0 0.0 0.0 xyz
      dof rx ry rz
   end
   begin
      id 9
      name LeftShoulder
      direction 1.000000 0.000000 0.000000
      length 7.084015
      axis 0.0 0.0 -90.0 xyz
      dof rx ry rz
   end
   begin
      id 10
      name LeftArm
      direction 1.000000 0.000000 0.000000
      length 10.259319
      axis 0.0 0.0 -90.0 xyz
      dof rx ry rz
   end
   begin
      id 11
      name LeftForeArm
      direction 1.000000 0.000000 0.000000
      length 9.896984
      axis 0.0 0.0 -90.0 xyz
      dof ry rz rx
   end
   begin
      id 12
      name LeftHand
      direction 0.000000 0.000000 0.000000
      length 0.000000
      axis 0.0 0.0 -90.0 xyz
      dof rx ry rz
   end
   begin
      id 13
      name LeftHand_dum1
      direction 0.000000 0.000000 0.000000
      length 0.000000
      axis 0.0 0.0 -90.0 xyz
   end
   begin
      id 14
      name LeftHand_dum2
      direction 1.000000 0.000000 0.000000
      length 3.937000
      axis 0.0 0.0 -90.0 xyz
   end
   begin
      id 15
      name LeftHandThumb1
      direction 0.000000 0.000000 1.000000
      length 3.937000
      axis 0.0 0.0 -90.0 xyz
      dof rx rz ry
   end
   begin
      id 16
      name RightShoulder
      direction -1.000000 0.000000 0.000000
      length 7.084015
      axis 0.0 0.0 90.0 xyz
      dof rx ry rz
   end
   begin
      id 17
      name RightArm
      direction -1.000000 0.000000 0.000000
      length 10.259319
      axis 0.0 0.0 90.0 xyz
      dof rx ry rz
   end
   begin
      id 18
      name RightForeArm
      direction -1.000000 0.000000 0.000000
      length 9.896984
      axis 0.0 0.0 90.0 xyz
      dof ry rz rx
   end
   begin
      id 19
      name RightHand
      direction 0.000000 0.000000 0.000000
      length 0.000000
      axis 0.0 0.0 90.0 xyz
      dof rx ry rz
   end
   begin
      id 20
      name RightHand_dum1
      direction 0.000000 0.000000 0.000000
      length 0.000000
      axis 0.0 0.0 90.0 xyz
   end
   begin
      id 21
      name RightHand_dum2
      direction -1.000000 0.000000 0.000000
      length 3.937000
      axis 0.0 0.0 90.0 xyz
   end
   begin
      id 22
      name RightHandThumb1
      direction 0.000000 0.000000 1.000000
      length 3.937000
      axis 0.0 0.0 90.0 xyz
      dof rx rz ry
   end
   begin
      id 23
      name LeftUpLeg
      direction 0.000000 -1.000000 0.000000
      length 19.114733
      axis 0.0 0.0 0.0 xyz
      dof rx ry rz
   end
   begin
      id 24
      name LeftLeg
      direction 0.000000 -1.000000 0.000000
      length 16.045604
      axis 0.0 0.0 0.0 xyz
      dof rx ry rz
   end
   begin
      id 25
      name LeftFoot
      direction 0.000000 -0.258819 0.965926
      length 5.543155
      axis 15.0 0.0 0.0 xyz
      dof rx ry rz
   end
   begin
      id 26
      name LeftToeBase
      direction 0.000000 0.000000 1.000000
      length 2.952750
      axis 0.0 0.0 0.0 xyz
      dof rx ry rz
   end
   begin
      id 27
      name RightUpLeg
      direction 0.000000 -1.000000 0.000000
      length 19.114733
      axis 0.0 0.0 0.0 xyz
      dof rx ry rz
   end
   begin
      id 28
      name RightLeg
      direction 0.000000 -1.000000 0.000000
      length 16.045604
      axis 0.0 0.0 0.0 xyz
      dof rx ry rz
   end
   begin
      id 29
      name RightFoot
      direction 0.000000 -0.258819 0.965926
      length 5.543155
      axis 15.0 0.0 0.0 xyz
      dof rx ry rz
   end
   begin
      id 30
      name RightToeBase
      direction 0.000000 0.000000 1.000000
      length 2.952750
      axis 0.0 0.0 0.0 xyz
      dof rx ry rz
   end
:hierarchy
   begin
      root Spine_dum LeftUpLeg_dum RightUpLeg_dum
      Spine_dum Spine
      LeftUpLeg_dum LeftUpLeg
      RightUpLeg_dum RightUpLeg
      Spine Spine_dum1 Spine_dum2 Spine_dum3
      Spine_dum1 Head
      Spine_dum2 LeftShoulder
      Spine_dum3 RightShoulder
      LeftShoulder LeftArm
      LeftArm LeftForeArm
      LeftForeArm LeftHand
      LeftHand LeftHand_dum1 LeftHand_dum2
      LeftHand_dum1 LeftHandThumb1
      RightShoulder RightArm
      RightArm RightForeArm
      RightForeArm RightHand
      RightHand RightHand_dum1 RightHand_dum2
      RightHand_dum1 RightHandThumb1
      LeftUpLeg LeftLeg
      LeftLeg LeftFoot
      LeftFoot LeftToeBase
      RightUpLeg RightLeg
      RightLeg RightFoot
      RightFoot RightToeBase
   end

# File created by Blade
# Date/Time:  Tue Jan 27 17:08:52 2015
# Frame Rate: 120.000 fps
#------------------------------------------------------
:FULLY-SPECIFIED
:DEGREES
3374
root -0.153638 38.800404 -0.623798 44.239746 -26.515975 -54.172065
Spine 0.093598 15.797481 24.273450
Head -10.405718 -35.170938 25.686577
LeftShoulder -7.548656 -4.206706 11.361025
LeftArm -25.046401 -42.955184 -33.179778
LeftForeArm 8.707119 0.000000 136.765440
LeftHand -26.357996 -0.000000 27.922553
LeftHandThumb1 -26.253704 0.000000 33.147579
RightShoulder -1.724147 -20.573487 1.161000
RightArm 32.958109 -29.348597 42.342095
RightForeArm 154.849937 0.000000 74.814232
RightHand 4.073499 -0.000000 0.541714
RightHandThumb1 -24.326973 -0.000000 -32.862282
LeftUpLeg -22.248935 22.923982 38.699728
LeftLeg 25.633401 -0.000000 -0.000000
LeftFoot -23.502461 11.591145 -13.799991
LeftToeBase 14.292401 -0.000000 -0.000000
RightUpLeg -59.260708 -31.167279 -8.074465
RightLeg 99.770937 -0.000000 -0.000000
RightFoot 2.357003 -2.361431 11.982801
RightToeBase 4.714251 -0.000000 -0.000000
3375
root -0.152703 38.802777 -0.626924 44.287079 -26.518230 -54.225505
Spine 0.086327 15.853074 24.276324
Head -10.322935 -35.189470 25.649213
LeftShoulder -7.552547 -4.185472 11.391229
LeftArm -25.039490 -42.990376 -33.267304
LeftForeArm 8.695346 -0.000000 136.910422
LeftHand -26.414141 -0.000000 27.840542
LeftHandThumb1 -26.253704 0.000000 33.147579
RightShoulder -1.725198 -20.565606 1.165518
RightArm 32.938682 -29.352556 42.380791
RightForeArm 154.842259 -0.000000 74.804280
RightHand 4.051351 0.000000 0.478755
RightHandThumb1 -24.326973 -0.000000 -32.862282
LeftUpLeg -22.258743 23.005644 38.726228
LeftLeg 25.642881 -0.000000 -0.000000
LeftFoot -23.485470 11.534845 -13.774119
LeftToeBase 14.301157 -0.000000 -0.000000
RightUpLeg -59.342311 -31.160211 -8.148796
RightLeg 99.085379 -0.000000 -0.000000
RightFoot 2.488375 -2.241704 11.846029
RightToeBase 4.587414 -0.000000 -0.000000
3376
root -0.153283 38.805088 -0.625626 44.290770 -26.488042 -54.263754
Spine 0.104372 15.868176 24.315959
Head -10.239421 -35.180225 25.595972
LeftShoulder -7.551108 -4.177383 11.402882
LeftArm -25.049415 -43.027567 -33.348051
LeftForeArm 8.650651 0.000000 137.055235
LeftHand -26.376332 -0.000000 27.752198
LeftHandThumb1 -26.253704 0.000000 33.147579
RightShoulder -1.749569 -20.579035 1.179842
RightArm 32.954412 -29.345883 42.357720
RightForeArm 154.904059 -0.000000 74.799567
RightHand 4.051828 -0.000000 0.432471
RightHandThumb1 -24.326973 -0.000000 -32.862282
LeftUpLeg -22.250666 23.022720 38.779981
LeftLeg 25.658116 -0.000000 -0.000000
LeftFoot -23.469362 11.500570 -13.762215
LeftToeBase 14.277029 -0.000000 -0.000000
RightUpLeg -59.358835 -31.204032 -8.232118
RightLeg 98.410117 -0.000000 -0.000000
RightFoot 2.517724 -2.177366 11.882716
RightToeBase 4.725207 -0.000000 -0.000000
3377
root -0.154392 38.806382 -0.623772 44.281320 -26.466426 -54.298631
Spine 0.132292 15.858121 24.346120
Head -10.138974 -35.151492 25.524278
LeftShoulder -7.561746 -4.177770 11.418707
LeftArm -25.095217 -43.049131 -33.393928
LeftForeArm 8.593668 0.000000 137.200516
LeftHand -26.298211 -0.000000 27.743163
LeftHandThumb1 -26.253704 0.000000 33.147579
RightShoulder -1.736561 -20.572315 1.187857
RightArm 32.925115 -29.336895 42.371448
RightForeArm 154.942705 -0.000000 74.809253
RightHand 4.044854 -0.000000 0.431463
RightHandThumb1 -24.326973 -0.000000 -32.862282
LeftUpLeg -22.230665 23.051766 38.821441
LeftLeg 25.666072 -0.000000 -0.000000
LeftFoot -23.463610 11.475729 -13.760536
LeftToeBase 14.260664 -0.000000 -0.000000
RightUpLeg -59.364113 -31.263134 -8.314370
RightLeg 97.746062 -0.000000 -0.000000
RightFoot 2.533382 -2.212722 11.897743
RightToeBase 4.709329 -0.000000 -0.000000
3378
root -0.154934 38.806364 -0.619375 44.258936 -26.452687 -54.314710
Spine 0.168010 15.844087 24.371326
Head -10.060752 -35.132283 25.446815
LeftShoulder -7.589822 -4.168460 11.404277
LeftArm -25.073471 -43.055603 -33.457167
LeftForeArm 8.657377 -0.000000 137.329489
LeftHand -26.325191 -0.000000 27.802376
LeftHandThumb1 -26.253704 0.000000 33.147579
RightShoulder -1.750331 -20.565783 1.194768
RightArm 32.930956 -29.341797 42.353346
RightForeArm 154.953119 -0.000000 74.810215
RightHand 4.040695 -0.000000 0.438045
RightHandThumb1 -24.326973 -0.000000 -32.862282
LeftUpLeg -22.209936 23.071403 38.833347
LeftLeg 25.665493 -0.000000 -0.000000
LeftFoot -23.460041 11.503799 -13.709070
LeftToeBase 14.236803 -0.000000 -0.000000
RightUpLeg -59.363520 -31.335044 -8.409304
RightLeg 97.105392 -0.000000 -0.000000
RightFoot 2.673900 -2.304485 11.505463
RightToeBase 4.188704 -0.000000 -0.000000
3379
root -0.156793 38.807030 -0.615679 44.245540 -26.443596 -54.344998
Spine 0.196590 15.846284 24.394928
Head -10.002342 -35.180107 25.343878
LeftShoulder -7.609381 -4.155788 11.388683
LeftArm -25.072604 -43.086910 -33.480097
LeftForeArm 8.644469 0.000000 137.451232
LeftHand -26.269082 -0.000000 27.731884
LeftHandThumb1 -26.253704 0.000000 33.147579
RightShoulder -1.761669 -20.555415 1.207492
RightArm 32.917084 -29.348962 42.349577
RightForeArm 155.020795 -0.000000 74.811124
RightHand 4.019029 -0.000000 0.428750
RightHandThumb1 -24.326973 -0.000000 -32.862282
LeftUpLeg -22.182170 23.110135 38.854685
LeftLeg 25.674453 -0.000000 -0.000000
LeftFoot -23.453043 11.502948 -13.643599
LeftToeBase 14.195937 -0.000000 -0.000000
RightUpLeg -59.372514 -31.402067 -8.480324
RightLeg 96.479385 -0.000000 -0.000000
RightFoot 2.661698 -2.462154 11.480321
RightToeBase 3.816129 -0.000000 -0.000000
3380
root -0.159204 38.807667 -0.613106 44.235807 -26.439677 -54.372684
Spine 0.216365 15.846195 24.400783
Head -9.908347 -35.183298 25.291351
LeftShoulder -7.627561 -4.152163 11.384862
LeftArm -25.096656 -43.125208 -33.481079
LeftForeArm 8.566581 -0.000000 137.577364
LeftHand -26.259244 -0.000000 27.683891
LeftHandThumb1 -26.253704 0.000000 33.147579
RightShoulder -1.774323 -20.623961 1.243477
RightArm 32.958449 -29.289060 42.309779
RightForeArm 155.086358 -0.000000 74.816502
RightHand 4.005203 0.000000 0.448261
RightHandThumb1 -24.326973 -0.000000 -32.862282
LeftUpLeg -22.145247 23.119223 38.891000
LeftLeg 25.665916 -0.000000 -0.000000
LeftFoot -23.460033 11.548451 -13.683064
LeftToeBase 14.206390 -0.000000 -0.000000
RightUpLeg -59.395624 -31.475563 -8.539077
RightLeg 95.841365 -0.000000 -0.000000
RightFoot 2.418078 -2.698969 12.250081
RightToeBase 4.895830 -0.000000 -0.000000
3381
root -0.161114 38.808341 -0.609678 44.218518 -26.430075 -54.387951
Spine 0.239484 15.826734 24.401768
Head -9.817781 -35.150635 25.256207
LeftShoulder -7.651568 -4.168467 11.376868
LeftArm -25.139506 -43.155597 -33.450722
LeftForeArm 8.531427 0.000000 137.687128
LeftHand -26.278651 -0.000000 27.635282
LeftHandThumb1 -26.253704 0.000000 33.147579
RightShoulder -1.772509 -20.574120 1.275487
RightArm 32.901583 -29.303474 42.309014
RightForeArm 155.153967 0.000000 74.841657
RightHand 4.013923 -0.000000 0.434114
RightHandThumb1 -24.326973 -0.000000 -32.862282
LeftUpLeg -22.123840 23.140248 38.900758
LeftLeg 25.656647 -0.000000 -0.000000
LeftFoot -23.441043 11.543281 -13.610138
LeftToeBase 14.197646 -0.000000 -0.000000
RightUpLeg -59.408579 -31.560756 -8.598120
RightLeg 95.247145 -0.000000 -0.000000
RightFoot 2.369356 -2.934143 12.292326
RightToeBase 5.011632 -0.000000 -0.000000
3382
root -0.162836 38.809218 -0.606483 44.224780 -26.427638 -54.411055
Spine 0.235392 15.827053 24.399586
Head -9.730344 -35.120971 25.196695
LeftShoulder -7.672842 -4.196572 11.356299
LeftArm -25.161364 -43.134321 -33.403849
LeftForeArm 8.625937 -0.000000 137.768730
LeftHand -26.340052 -0.000000 27.694009
LeftHandThumb1 -26.253704 0.000000 33.147579
RightShoulder -1.787957 -20.572799 1.295916
RightArm 32.902851 -29.305528 42.292426
RightForeArm 155.238801 0.000000 74.837087
RightHand 4.002174 -0.000000 0.400168
RightHandThumb1 -24.326973 -0.000000 -32.862282
LeftUpLeg -22.103507 23.146539 38.916266
LeftLeg 25.640624 -0.000000 -0.000000
LeftFoot -23.423564 11.590478 -13.568901
LeftToeBase 14.124663 -0.000000 -0.000000
RightUpLeg -59.438904 -31.620736 -8.647228
RightLeg 94.667655 -0.000000 -0.000000
RightFoot 2.287490 -3.206221 12.356369
RightToeBase 5.216977 -0.000000 -0.000000
3383
root -0.165082 38.810433 -0.603816 44.218062 -26.426859 -54.431105
Spine 0.231602 15.821046 24.394387
Head -9.611536 -35.093990 25.102004
LeftShoulder -7.661352 -4.201980 11.331919
LeftArm -25.251825 -43.188161 -33.291648
LeftForeArm 8.586866 -0.000000 137.840042
LeftHand -26.336818 0.000000 27.614735
LeftHandThumb1 -26.253704 0.000000 33.147579
RightShoulder -1.782331 -20.605973 1.303276
RightArm 32.910382 -29.274063 42.284864
RightForeArm 155.320855 -0.000000 74.823484
RightHand 3.966144 -0.000000 0.434915
RightHandThumb1 -24.326973 -0.000000 -32.862282
LeftUpLeg -22.071338 23.132415 38.940932
LeftLeg 25.634200 -0.000000 -0.000000
LeftFoot -23.425091 11.669656 -13.551643
LeftToeBase 14.113417 -0.000000 -0.000000
RightUpLeg -59.444776 -31.676427 -8.712919
RightLeg 94.132604 -0.000000 -0.000000
RightFoot 2.234758 -3.422979 12.158875
RightToeBase 4.966958 -0.000000 -0.000000
